<svg xmlns="http://www.w3.org/2000/svg" viewBox="0 0 979.37 668.56"><defs><style>.cls-1,.cls-3{fill:#fff;}.cls-2,.cls-4{fill:#919396;}.cls-3{stroke:#fff;stroke-linejoin:round;stroke-width:0.25px;}.cls-10,.cls-11,.cls-4{font-size:17.39px;}.cls-11,.cls-16,.cls-4{font-family:AkzidenzGroteskCE-Roman, Akzidenz Grotesk CE Roman;}.cls-5{letter-spacing:-0.09em;}.cls-6{letter-spacing:0em;}.cls-7{letter-spacing:-0.13em;}.cls-8{letter-spacing:0em;}.cls-10,.cls-11,.cls-13,.cls-16,.cls-9{fill:#58595b;}.cls-10,.cls-13{font-family:AkzidenzGroteskCE-Black, Akzidenz Grotesk CE Roman;font-weight:700;}.cls-12{letter-spacing:-0.04em;}.cls-13{font-size:14.13px;}.cls-14{fill:#231f20;}.cls-14,.cls-15,.cls-18{stroke:#58595b;stroke-miterlimit:10;}.cls-14,.cls-15{stroke-width:1.5px;}.cls-15,.cls-18{fill:none;}.cls-16{font-size:24px;}.cls-17{letter-spacing:-0.07em;}.cls-18{stroke-width:2px;}</style></defs><title>Artboard 3 copy</title><g id="Layer_3" data-name="Layer 3"><polygon class="cls-1" points="27.2 101.61 26.96 107.38 25.38 106.52 24.71 103.86 22.58 104.98 18.65 102.82 16.45 91.99 21.4 93.17 22.89 96.52 30.02 96.86 26.34 100.23 27.2 101.61"/><polygon class="cls-1" points="26.96 107.38 30.68 109.55 45.14 107.05 42.42 97.45 27.2 101.61 26.96 107.38"/><polygon class="cls-1" points="30.68 109.55 36.05 112.16 35.52 117.82 40.74 119.99 40.74 122.72 49.45 122.2 45.14 107.05 30.68 109.55"/><polygon class="cls-1" points="40.74 122.72 35.57 122.82 35.57 126.33 37.85 126.33 38.16 127.6 33.41 131.71 36.44 135.35 50.62 126.33 49.45 122.2 40.74 122.72"/><polygon class="cls-1" points="30.68 109.55 28.19 112.72 29.44 117.86 26.96 118.42 27.24 121.66 34.4 128.48 35.57 126.33 35.57 122.82 40.74 122.72 40.74 119.99 35.52 117.82 36.05 112.16 30.68 109.55"/><polygon class="cls-1" points="27.24 121.66 23.33 124.18 25.29 126.14 23.33 130.1 27.24 133.07 33.41 131.71 38.16 127.6 37.85 126.33 35.57 126.33 34.4 128.48 27.24 121.66"/><polygon class="cls-1" points="23.33 130.1 20.76 135.35 18.02 135.35 18.63 140 14.22 139.34 11.93 135.05 20.56 120.94 23.33 124.18 25.29 126.14 23.33 130.1"/><polygon class="cls-1" points="18.63 140 22.1 138.1 26.52 146.26 23.05 149.89 24.45 156.93 41.38 156.25 39.13 153.04 46.03 148.12 34.58 136.54 36.44 135.35 33.41 131.71 27.24 133.07 23.33 130.1 20.76 135.35 18.02 135.35 18.63 140"/><polygon class="cls-1" points="14.22 139.34 13.84 144.42 7.61 157.59 24.45 156.93 23.05 149.89 26.52 146.26 22.1 138.1 18.63 140 14.22 139.34"/><polygon class="cls-1" points="7.61 138.43 9.46 143.95 5.38 143.52 4.63 140 7.61 138.43"/><polygon class="cls-2" points="13.93 131.72 11.93 127.36 2.98 132.28 1.01 123.05 7.47 117.68 12.26 113.72 13.15 118.08 15.67 117.69 15.22 114.73 20.56 120.94 13.93 131.72"/><polygon class="cls-1" points="2.98 132.28 11.93 127.36 13.93 131.72 11.93 135.05 14.22 139.34 13.84 144.42 9.46 143.95 7.61 138.43 4.63 140 2.98 132.28"/><polygon class="cls-1" points="18.65 102.82 22.58 104.98 23.06 107.32 25.38 106.52 30.68 109.55 28.19 112.72 29.44 117.86 26.96 118.42 27.24 121.66 23.33 124.18 15.22 114.73 15.67 117.69 13.15 118.08 12.26 113.72 7.47 117.68 7.44 103.91 14.38 105.46 18.65 102.82"/><polygon class="cls-1" points="16.45 108.06 16.16 108.95 18.43 110.44 19.06 109.03 16.45 108.06"/><polygon class="cls-1" points="40.81 113.06 40.07 115.08 43 115.58 43.65 114.64 41.94 112.79 40.81 113.06"/><circle class="cls-3" cx="8.78" cy="206.67" r="7.77"/><circle class="cls-3" cx="29.92" cy="206.67" r="7.77"/><circle class="cls-3" cx="51.07" cy="206.67" r="7.77"/><circle class="cls-3" cx="72.21" cy="206.67" r="7.77"/><circle class="cls-3" cx="93.35" cy="206.67" r="7.77"/><circle class="cls-3" cx="114.49" cy="206.67" r="7.77"/><circle class="cls-3" cx="135.63" cy="206.67" r="7.77"/><circle class="cls-3" cx="8.78" cy="227.19" r="7.77"/><circle class="cls-3" cx="29.92" cy="227.19" r="7.77"/><circle class="cls-3" cx="51.07" cy="227.19" r="7.77"/><circle class="cls-3" cx="72.21" cy="227.19" r="7.77"/><circle class="cls-3" cx="93.35" cy="227.19" r="7.77"/><circle class="cls-3" cx="114.49" cy="227.19" r="7.77"/><circle class="cls-3" cx="135.63" cy="227.19" r="7.77"/><circle class="cls-3" cx="8.78" cy="247.71" r="7.77"/><circle class="cls-3" cx="29.92" cy="247.71" r="7.77"/><circle class="cls-3" cx="51.07" cy="247.71" r="7.77"/><circle class="cls-3" cx="72.21" cy="247.71" r="7.77"/><circle class="cls-3" cx="93.35" cy="247.71" r="7.77"/><circle class="cls-3" cx="114.49" cy="247.71" r="7.77"/><circle class="cls-3" cx="135.63" cy="247.71" r="7.77"/><circle class="cls-3" cx="8.78" cy="268.23" r="7.77"/><circle class="cls-3" cx="29.92" cy="268.23" r="7.77"/><circle class="cls-3" cx="51.07" cy="268.23" r="7.77"/><circle class="cls-3" cx="72.21" cy="268.23" r="7.77"/><circle class="cls-3" cx="93.35" cy="268.23" r="7.77"/><circle class="cls-3" cx="114.49" cy="268.23" r="7.77"/><circle class="cls-3" cx="135.63" cy="268.23" r="7.77"/><circle class="cls-3" cx="8.78" cy="288.75" r="7.77"/><circle class="cls-3" cx="29.92" cy="288.75" r="7.77"/><circle class="cls-3" cx="51.07" cy="288.75" r="7.77"/><circle class="cls-3" cx="72.21" cy="288.75" r="7.77"/><circle class="cls-3" cx="93.35" cy="288.75" r="7.77"/><circle class="cls-3" cx="114.49" cy="288.75" r="7.77"/><circle class="cls-3" cx="135.63" cy="288.75" r="7.77"/><circle class="cls-3" cx="8.78" cy="309.27" r="7.77"/><circle class="cls-3" cx="29.92" cy="309.27" r="7.77"/><circle class="cls-3" cx="51.07" cy="309.27" r="7.77"/><circle class="cls-3" cx="72.21" cy="309.27" r="7.77"/><circle class="cls-3" cx="93.35" cy="309.27" r="7.77"/><circle class="cls-3" cx="114.49" cy="309.27" r="7.77"/><circle class="cls-3" cx="135.63" cy="309.27" r="7.77"/><circle class="cls-3" cx="8.78" cy="329.79" r="7.77"/><circle class="cls-3" cx="29.92" cy="329.79" r="7.77"/><circle class="cls-3" cx="51.07" cy="329.79" r="7.77"/><circle class="cls-3" cx="72.21" cy="329.79" r="7.77"/><circle class="cls-3" cx="93.35" cy="329.79" r="7.77"/><circle class="cls-3" cx="114.49" cy="329.79" r="7.77"/><circle class="cls-3" cx="135.63" cy="329.79" r="7.77"/><circle class="cls-3" cx="8.78" cy="350.31" r="7.77"/><circle class="cls-3" cx="29.92" cy="350.31" r="7.77"/><circle class="cls-3" cx="51.07" cy="350.31" r="7.77"/><circle class="cls-3" cx="72.21" cy="350.31" r="7.77"/><circle class="cls-3" cx="93.35" cy="350.31" r="7.77"/><circle class="cls-3" cx="114.49" cy="350.31" r="7.77"/><circle class="cls-3" cx="135.63" cy="350.31" r="7.77"/><circle class="cls-3" cx="8.78" cy="370.83" r="7.77"/><circle class="cls-3" cx="29.92" cy="370.83" r="7.77"/><circle class="cls-3" cx="51.07" cy="370.83" r="7.77"/><circle class="cls-3" cx="72.21" cy="370.83" r="7.77"/><circle class="cls-3" cx="93.35" cy="370.83" r="7.77"/><circle class="cls-3" cx="114.49" cy="370.83" r="7.77"/><circle class="cls-3" cx="135.63" cy="370.83" r="7.77"/><circle class="cls-3" cx="8.78" cy="391.35" r="7.77"/><circle class="cls-3" cx="29.92" cy="391.35" r="7.77"/><circle class="cls-3" cx="51.07" cy="391.35" r="7.77"/><circle class="cls-3" cx="72.21" cy="391.35" r="7.77"/><circle class="cls-3" cx="93.35" cy="391.35" r="7.77"/><circle class="cls-3" cx="114.49" cy="391.35" r="7.77"/><circle class="cls-3" cx="135.63" cy="391.35" r="7.77"/><circle class="cls-3" cx="8.78" cy="411.87" r="7.77"/><circle class="cls-3" cx="29.92" cy="411.87" r="7.77"/><circle class="cls-3" cx="51.07" cy="411.87" r="7.77"/><circle class="cls-3" cx="72.21" cy="411.87" r="7.77"/><circle class="cls-3" cx="93.35" cy="411.87" r="7.77"/><circle class="cls-3" cx="114.49" cy="411.87" r="7.77"/><circle class="cls-3" cx="135.63" cy="411.87" r="7.77"/><circle class="cls-3" cx="8.78" cy="432.39" r="7.77"/><circle class="cls-3" cx="29.92" cy="432.39" r="7.77"/><circle class="cls-3" cx="51.07" cy="432.39" r="7.77"/><circle class="cls-3" cx="72.21" cy="432.39" r="7.77"/><circle class="cls-3" cx="93.35" cy="432.39" r="7.77"/><circle class="cls-3" cx="114.49" cy="432.39" r="7.77"/><circle class="cls-3" cx="135.63" cy="432.39" r="7.77"/><circle class="cls-3" cx="8.78" cy="452.91" r="7.77"/><circle class="cls-3" cx="29.92" cy="452.91" r="7.77"/><circle class="cls-3" cx="51.07" cy="452.91" r="7.77"/><circle class="cls-3" cx="72.21" cy="452.91" r="7.77"/><circle class="cls-3" cx="93.35" cy="452.91" r="7.77"/><circle class="cls-3" cx="114.49" cy="452.91" r="7.77"/><circle class="cls-3" cx="135.63" cy="452.91" r="7.77"/><circle class="cls-3" cx="8.78" cy="473.43" r="7.77"/><circle class="cls-3" cx="29.92" cy="473.43" r="7.77"/><circle class="cls-3" cx="51.07" cy="473.43" r="7.77"/><circle class="cls-3" cx="72.21" cy="473.43" r="7.77"/><circle class="cls-3" cx="93.35" cy="473.43" r="7.77"/><circle class="cls-3" cx="114.49" cy="473.43" r="7.77"/><circle class="cls-3" cx="135.63" cy="473.43" r="7.77"/><circle class="cls-3" cx="8.78" cy="493.95" r="7.77"/><circle class="cls-3" cx="29.92" cy="493.95" r="7.77"/><circle class="cls-3" cx="51.07" cy="493.95" r="7.77"/><circle class="cls-3" cx="72.21" cy="493.95" r="7.77"/><circle class="cls-3" cx="93.35" cy="493.95" r="7.77"/><circle class="cls-3" cx="114.49" cy="493.95" r="7.77"/><circle class="cls-3" cx="135.63" cy="493.95" r="7.77"/><circle class="cls-3" cx="8.78" cy="514.47" r="7.77"/><circle class="cls-3" cx="29.92" cy="514.47" r="7.77"/><circle class="cls-3" cx="51.07" cy="514.47" r="7.77"/><circle class="cls-3" cx="72.21" cy="514.47" r="7.77"/><circle class="cls-3" cx="93.35" cy="514.47" r="7.77"/><circle class="cls-3" cx="114.49" cy="514.47" r="7.77"/><circle class="cls-3" cx="135.63" cy="514.47" r="7.77"/><circle class="cls-3" cx="8.78" cy="534.99" r="7.77"/><circle class="cls-3" cx="29.92" cy="534.99" r="7.77"/><circle class="cls-3" cx="51.07" cy="534.99" r="7.77"/><circle class="cls-3" cx="72.21" cy="534.99" r="7.77"/><circle class="cls-3" cx="93.35" cy="534.99" r="7.77"/><circle class="cls-3" cx="114.49" cy="534.99" r="7.77"/><circle class="cls-3" cx="135.63" cy="534.99" r="7.77"/><circle class="cls-3" cx="8.78" cy="555.51" r="7.77"/><circle class="cls-3" cx="29.92" cy="555.51" r="7.77"/><circle class="cls-3" cx="51.07" cy="555.51" r="7.77"/><circle class="cls-3" cx="72.21" cy="555.51" r="7.77"/><circle class="cls-3" cx="93.35" cy="555.51" r="7.77"/><circle class="cls-3" cx="114.49" cy="555.51" r="7.77"/><circle class="cls-3" cx="135.63" cy="555.51" r="7.77"/><circle class="cls-3" cx="8.78" cy="576.03" r="7.77"/><circle class="cls-3" cx="29.92" cy="576.03" r="7.77"/><circle class="cls-3" cx="51.07" cy="576.03" r="7.77"/><circle class="cls-3" cx="72.21" cy="576.03" r="7.77"/><circle class="cls-3" cx="93.35" cy="576.03" r="7.77"/><circle class="cls-3" cx="114.49" cy="576.03" r="7.77"/><circle class="cls-3" cx="114.49" cy="596.55" r="7.77"/><circle class="cls-3" cx="8.78" cy="596.55" r="7.77"/><circle class="cls-3" cx="29.92" cy="596.55" r="7.77"/><circle class="cls-3" cx="51.07" cy="596.55" r="7.77"/><circle class="cls-3" cx="72.21" cy="596.55" r="7.77"/><circle class="cls-3" cx="93.35" cy="596.55" r="7.77"/><text class="cls-4" transform="translate(1.01 183.04)">North Rhine-<tspan class="cls-5" x="93.4" y="0">W</tspan><tspan class="cls-6" x="109.17" y="0">.</tspan></text><polygon class="cls-1" points="184.81 103.69 184.57 109.46 183 108.59 182.32 105.93 180.19 107.05 176.26 104.9 174.06 94.07 179.01 95.25 180.51 98.59 187.63 98.93 183.95 102.3 184.81 103.69"/><polygon class="cls-1" points="184.57 109.46 188.3 111.62 202.76 109.12 200.03 99.52 184.81 103.69 184.57 109.46"/><polygon class="cls-1" points="188.3 111.62 193.67 114.23 193.13 119.9 198.35 122.06 198.35 124.79 207.06 124.27 202.76 109.12 188.3 111.62"/><polygon class="cls-1" points="198.35 124.79 193.19 124.9 193.19 128.41 195.46 128.41 195.77 129.67 191.02 133.78 194.05 137.43 208.24 128.41 207.06 124.27 198.35 124.79"/><polygon class="cls-1" points="188.3 111.62 185.81 114.79 187.05 119.94 184.57 120.5 184.85 123.74 192.01 130.56 193.19 128.41 193.19 124.9 198.35 124.79 198.35 122.06 193.13 119.9 193.67 114.23 188.3 111.62"/><polygon class="cls-1" points="184.85 123.74 180.94 126.25 182.9 128.21 180.94 132.18 184.85 135.14 191.02 133.78 195.77 129.67 195.46 128.41 193.19 128.41 192.01 130.56 184.85 123.74"/><polygon class="cls-1" points="180.94 132.18 178.37 137.43 175.63 137.43 176.25 142.07 171.84 141.41 169.54 137.13 178.18 123.01 180.94 126.25 182.9 128.21 180.94 132.18"/><polygon class="cls-2" points="176.25 142.07 179.71 140.17 184.13 148.34 180.66 151.97 182.06 159 198.99 158.33 196.74 155.12 203.64 150.2 192.19 138.61 194.05 137.43 191.02 133.78 184.85 135.14 180.94 132.18 178.37 137.43 175.63 137.43 176.25 142.07"/><polygon class="cls-1" points="171.84 141.41 171.45 146.49 165.22 159.67 182.06 159 180.66 151.97 184.13 148.34 179.71 140.17 176.25 142.07 171.84 141.41"/><polygon class="cls-1" points="165.22 140.51 167.07 146.03 163 145.59 162.24 142.07 165.22 140.51"/><polygon class="cls-1" points="171.54 133.8 169.54 129.44 160.59 134.36 158.62 125.12 165.08 119.75 169.87 115.8 170.77 120.16 173.28 119.77 172.84 116.81 178.18 123.01 171.54 133.8"/><polygon class="cls-1" points="160.59 134.36 169.54 129.44 171.54 133.8 169.54 137.13 171.84 141.41 171.45 146.49 167.07 146.03 165.22 140.51 162.24 142.07 160.59 134.36"/><polygon class="cls-1" points="176.26 104.9 180.19 107.05 180.67 109.4 183 108.59 188.3 111.62 185.81 114.79 187.05 119.94 184.57 120.5 184.85 123.74 180.94 126.25 172.84 116.81 173.28 119.77 170.77 120.16 169.87 115.8 165.08 119.75 165.05 105.99 172 107.53 176.26 104.9"/><polygon class="cls-1" points="174.06 110.14 173.77 111.03 176.04 112.52 176.68 111.11 174.06 110.14"/><polygon class="cls-1" points="198.42 115.13 197.68 117.15 200.61 117.66 201.26 116.72 199.55 114.86 198.42 115.13"/><circle class="cls-3" cx="166.39" cy="206.67" r="7.77"/><circle class="cls-3" cx="187.54" cy="206.67" r="7.77"/><circle class="cls-3" cx="208.68" cy="206.67" r="7.77"/><circle class="cls-3" cx="229.82" cy="206.67" r="7.77"/><circle class="cls-3" cx="250.96" cy="206.67" r="7.77"/><circle class="cls-3" cx="166.39" cy="227.19" r="7.77"/><circle class="cls-3" cx="187.54" cy="227.19" r="7.77"/><circle class="cls-3" cx="208.68" cy="227.19" r="7.77"/><circle class="cls-3" cx="229.82" cy="227.19" r="7.77"/><circle class="cls-3" cx="250.96" cy="227.19" r="7.77"/><circle class="cls-3" cx="166.39" cy="247.71" r="7.77"/><circle class="cls-3" cx="187.54" cy="247.71" r="7.77"/><circle class="cls-3" cx="208.68" cy="247.71" r="7.77"/><circle class="cls-3" cx="229.82" cy="247.71" r="7.77"/><circle class="cls-3" cx="250.96" cy="247.71" r="7.77"/><circle class="cls-3" cx="166.39" cy="268.23" r="7.77"/><circle class="cls-3" cx="187.54" cy="268.23" r="7.77"/><circle class="cls-3" cx="208.68" cy="268.23" r="7.77"/><circle class="cls-3" cx="229.82" cy="268.23" r="7.77"/><circle class="cls-3" cx="250.96" cy="268.23" r="7.77"/><circle class="cls-3" cx="166.39" cy="288.75" r="7.77"/><circle class="cls-3" cx="187.54" cy="288.75" r="7.77"/><circle class="cls-3" cx="208.68" cy="288.75" r="7.77"/><circle class="cls-3" cx="229.82" cy="288.75" r="7.77"/><circle class="cls-3" cx="250.96" cy="288.75" r="7.77"/><circle class="cls-3" cx="166.39" cy="309.27" r="7.77"/><circle class="cls-3" cx="187.54" cy="309.27" r="7.77"/><circle class="cls-3" cx="208.68" cy="309.27" r="7.77"/><circle class="cls-3" cx="229.82" cy="309.27" r="7.77"/><circle class="cls-3" cx="250.96" cy="309.27" r="7.77"/><circle class="cls-3" cx="166.39" cy="329.79" r="7.77"/><circle class="cls-3" cx="187.54" cy="329.79" r="7.77"/><circle class="cls-3" cx="208.68" cy="329.79" r="7.77"/><circle class="cls-3" cx="229.82" cy="329.79" r="7.77"/><circle class="cls-3" cx="250.96" cy="329.79" r="7.77"/><circle class="cls-3" cx="166.39" cy="350.31" r="7.77"/><circle class="cls-3" cx="187.54" cy="350.31" r="7.77"/><circle class="cls-3" cx="208.68" cy="350.31" r="7.77"/><circle class="cls-3" cx="229.82" cy="350.31" r="7.77"/><circle class="cls-3" cx="250.96" cy="350.31" r="7.77"/><circle class="cls-3" cx="166.39" cy="370.83" r="7.77"/><circle class="cls-3" cx="187.54" cy="370.83" r="7.77"/><circle class="cls-3" cx="208.68" cy="370.83" r="7.77"/><circle class="cls-3" cx="229.82" cy="370.83" r="7.77"/><circle class="cls-3" cx="250.96" cy="370.83" r="7.77"/><circle class="cls-3" cx="166.39" cy="391.35" r="7.77"/><circle class="cls-3" cx="187.54" cy="391.35" r="7.77"/><circle class="cls-3" cx="208.68" cy="391.35" r="7.77"/><circle class="cls-3" cx="229.82" cy="391.35" r="7.77"/><circle class="cls-3" cx="250.96" cy="391.35" r="7.77"/><circle class="cls-3" cx="166.39" cy="411.87" r="7.77"/><circle class="cls-3" cx="187.54" cy="411.87" r="7.77"/><circle class="cls-3" cx="208.68" cy="411.87" r="7.77"/><circle class="cls-3" cx="229.82" cy="411.87" r="7.77"/><circle class="cls-3" cx="250.96" cy="411.87" r="7.77"/><circle class="cls-3" cx="166.39" cy="432.39" r="7.77"/><circle class="cls-3" cx="187.54" cy="432.39" r="7.77"/><circle class="cls-3" cx="208.68" cy="432.39" r="7.77"/><circle class="cls-3" cx="229.82" cy="432.39" r="7.77"/><circle class="cls-3" cx="166.39" cy="452.91" r="7.77"/><circle class="cls-3" cx="187.54" cy="452.91" r="7.77"/><circle class="cls-3" cx="208.68" cy="452.91" r="7.77"/><circle class="cls-3" cx="229.82" cy="452.91" r="7.77"/><circle class="cls-3" cx="166.39" cy="473.43" r="7.77"/><circle class="cls-3" cx="187.54" cy="473.43" r="7.77"/><circle class="cls-3" cx="208.68" cy="473.43" r="7.77"/><circle class="cls-3" cx="229.82" cy="473.43" r="7.77"/><circle class="cls-3" cx="166.39" cy="493.95" r="7.77"/><circle class="cls-3" cx="187.54" cy="493.95" r="7.77"/><circle class="cls-3" cx="208.68" cy="493.95" r="7.77"/><circle class="cls-3" cx="229.82" cy="493.95" r="7.77"/><circle class="cls-3" cx="166.39" cy="514.47" r="7.77"/><circle class="cls-3" cx="187.54" cy="514.47" r="7.77"/><circle class="cls-3" cx="208.68" cy="514.47" r="7.77"/><circle class="cls-3" cx="229.82" cy="514.47" r="7.77"/><circle class="cls-3" cx="166.39" cy="534.99" r="7.77"/><circle class="cls-3" cx="187.54" cy="534.99" r="7.77"/><circle class="cls-3" cx="208.68" cy="534.99" r="7.77"/><circle class="cls-3" cx="229.82" cy="534.99" r="7.77"/><circle class="cls-3" cx="166.39" cy="555.51" r="7.77"/><circle class="cls-3" cx="187.54" cy="555.51" r="7.77"/><circle class="cls-3" cx="208.68" cy="555.51" r="7.77"/><circle class="cls-3" cx="229.82" cy="555.51" r="7.77"/><circle class="cls-3" cx="166.39" cy="576.03" r="7.77"/><circle class="cls-3" cx="187.54" cy="576.03" r="7.77"/><circle class="cls-3" cx="208.68" cy="576.03" r="7.77"/><circle class="cls-3" cx="229.82" cy="576.03" r="7.77"/><circle class="cls-3" cx="166.39" cy="596.55" r="7.77"/><circle class="cls-3" cx="187.54" cy="596.55" r="7.77"/><circle class="cls-3" cx="208.68" cy="596.55" r="7.77"/><circle class="cls-3" cx="229.82" cy="596.55" r="7.77"/><text class="cls-4" transform="translate(158.62 183.04)">Bavaria</text><polygon class="cls-1" points="300.14 103.69 299.9 109.46 298.32 108.59 297.65 105.93 295.52 107.05 291.59 104.9 289.38 94.07 294.34 95.25 295.83 98.59 302.96 98.93 299.28 102.3 300.14 103.69"/><polygon class="cls-1" points="299.9 109.46 303.63 111.62 318.08 109.12 315.36 99.52 300.14 103.69 299.9 109.46"/><polygon class="cls-1" points="303.63 111.62 308.99 114.23 308.46 119.9 313.68 122.06 313.68 124.79 322.39 124.27 318.08 109.12 303.63 111.62"/><polygon class="cls-1" points="313.68 124.79 308.51 124.9 308.51 128.41 310.79 128.41 311.1 129.67 306.35 133.78 309.38 137.43 323.56 128.41 322.39 124.27 313.68 124.79"/><polygon class="cls-1" points="303.63 111.62 301.13 114.79 302.38 119.94 299.9 120.5 300.18 123.74 307.34 130.56 308.51 128.41 308.51 124.9 313.68 124.79 313.68 122.06 308.46 119.9 308.99 114.23 303.63 111.62"/><polygon class="cls-1" points="300.18 123.74 296.27 126.25 298.23 128.21 296.27 132.18 300.18 135.14 306.35 133.78 311.1 129.67 310.79 128.41 308.51 128.41 307.34 130.56 300.18 123.74"/><polygon class="cls-1" points="296.27 132.18 293.7 137.43 290.96 137.43 291.57 142.07 287.16 141.41 284.87 137.13 293.5 123.01 296.27 126.25 298.23 128.21 296.27 132.18"/><polygon class="cls-1" points="291.57 142.07 295.04 140.17 299.46 148.34 295.99 151.97 297.38 159 314.32 158.33 312.07 155.12 318.97 150.2 307.52 138.61 309.38 137.43 306.35 133.78 300.18 135.14 296.27 132.18 293.7 137.43 290.96 137.43 291.57 142.07"/><polygon class="cls-2" points="287.16 141.41 286.78 146.49 280.55 159.67 297.38 159 295.99 151.97 299.46 148.34 295.04 140.17 291.57 142.07 287.16 141.41"/><polygon class="cls-1" points="280.55 140.51 282.39 146.03 278.32 145.59 277.57 142.07 280.55 140.51"/><polygon class="cls-1" points="286.87 133.8 284.87 129.44 275.92 134.36 273.95 125.12 280.41 119.75 285.2 115.8 286.1 120.16 288.61 119.77 288.16 116.81 293.5 123.01 286.87 133.8"/><polygon class="cls-1" points="275.92 134.36 284.87 129.44 286.87 133.8 284.87 137.13 287.16 141.41 286.78 146.49 282.39 146.03 280.55 140.51 277.57 142.07 275.92 134.36"/><polygon class="cls-1" points="291.59 104.9 295.52 107.05 296 109.4 298.32 108.59 303.63 111.62 301.13 114.79 302.38 119.94 299.9 120.5 300.18 123.74 296.27 126.25 288.16 116.81 288.61 119.77 286.1 120.16 285.2 115.8 280.41 119.75 280.38 105.99 287.32 107.53 291.59 104.9"/><polygon class="cls-1" points="289.38 110.14 289.1 111.03 291.37 112.52 292 111.11 289.38 110.14"/><polygon class="cls-1" points="313.75 115.13 313.01 117.15 315.94 117.66 316.59 116.72 314.88 114.86 313.75 115.13"/><circle class="cls-3" cx="281.72" cy="206.67" r="7.77"/><circle class="cls-3" cx="302.86" cy="206.67" r="7.77"/><circle class="cls-3" cx="324.01" cy="206.67" r="7.77"/><circle class="cls-3" cx="345.15" cy="206.67" r="7.77"/><circle class="cls-3" cx="281.72" cy="227.19" r="7.77"/><circle class="cls-3" cx="302.86" cy="227.19" r="7.77"/><circle class="cls-3" cx="324.01" cy="227.19" r="7.77"/><circle class="cls-3" cx="345.15" cy="227.19" r="7.77"/><circle class="cls-3" cx="281.72" cy="247.71" r="7.77"/><circle class="cls-3" cx="302.86" cy="247.71" r="7.77"/><circle class="cls-3" cx="324.01" cy="247.71" r="7.77"/><circle class="cls-3" cx="345.15" cy="247.71" r="7.77"/><circle class="cls-3" cx="281.72" cy="268.23" r="7.77"/><circle class="cls-3" cx="302.86" cy="268.23" r="7.77"/><circle class="cls-3" cx="324.01" cy="268.23" r="7.77"/><circle class="cls-3" cx="345.15" cy="268.23" r="7.77"/><circle class="cls-3" cx="281.72" cy="288.75" r="7.77"/><circle class="cls-3" cx="302.86" cy="288.75" r="7.77"/><circle class="cls-3" cx="324.01" cy="288.75" r="7.77"/><circle class="cls-3" cx="345.15" cy="288.75" r="7.77"/><circle class="cls-3" cx="281.72" cy="309.27" r="7.77"/><circle class="cls-3" cx="302.86" cy="309.27" r="7.77"/><circle class="cls-3" cx="324.01" cy="309.27" r="7.77"/><circle class="cls-3" cx="345.15" cy="309.27" r="7.77"/><circle class="cls-3" cx="281.72" cy="329.79" r="7.77"/><circle class="cls-3" cx="302.86" cy="329.79" r="7.77"/><circle class="cls-3" cx="324.01" cy="329.79" r="7.77"/><circle class="cls-3" cx="345.15" cy="329.79" r="7.77"/><circle class="cls-3" cx="281.72" cy="350.31" r="7.77"/><circle class="cls-3" cx="302.86" cy="350.31" r="7.77"/><circle class="cls-3" cx="324.01" cy="350.31" r="7.77"/><circle class="cls-3" cx="345.15" cy="350.31" r="7.77"/><circle class="cls-3" cx="281.72" cy="370.83" r="7.77"/><circle class="cls-3" cx="302.86" cy="370.83" r="7.77"/><circle class="cls-3" cx="324.01" cy="370.83" r="7.77"/><circle class="cls-3" cx="345.15" cy="370.83" r="7.77"/><circle class="cls-3" cx="281.72" cy="391.35" r="7.77"/><circle class="cls-3" cx="302.86" cy="391.35" r="7.77"/><circle class="cls-3" cx="324.01" cy="391.35" r="7.77"/><circle class="cls-3" cx="345.15" cy="391.35" r="7.77"/><circle class="cls-3" cx="281.72" cy="411.87" r="7.77"/><circle class="cls-3" cx="302.86" cy="411.87" r="7.77"/><circle class="cls-3" cx="324.01" cy="411.87" r="7.77"/><circle class="cls-3" cx="345.15" cy="411.87" r="7.77"/><circle class="cls-3" cx="281.72" cy="432.39" r="7.77"/><circle class="cls-3" cx="302.86" cy="432.39" r="7.77"/><circle class="cls-3" cx="324.01" cy="432.39" r="7.77"/><circle class="cls-3" cx="345.15" cy="432.39" r="7.77"/><circle class="cls-3" cx="281.72" cy="452.91" r="7.77"/><circle class="cls-3" cx="302.86" cy="452.91" r="7.77"/><circle class="cls-3" cx="324.01" cy="452.91" r="7.77"/><circle class="cls-3" cx="345.15" cy="452.91" r="7.77"/><circle class="cls-3" cx="281.72" cy="473.43" r="7.77"/><circle class="cls-3" cx="302.86" cy="473.43" r="7.77"/><circle class="cls-3" cx="324.01" cy="473.43" r="7.77"/><circle class="cls-3" cx="345.15" cy="473.43" r="7.77"/><circle class="cls-3" cx="281.72" cy="493.95" r="7.77"/><circle class="cls-3" cx="302.86" cy="493.95" r="7.77"/><circle class="cls-3" cx="324.01" cy="493.95" r="7.77"/><circle class="cls-3" cx="345.15" cy="493.95" r="7.77"/><circle class="cls-3" cx="281.72" cy="514.47" r="7.77"/><circle class="cls-3" cx="302.86" cy="514.47" r="7.77"/><circle class="cls-3" cx="324.01" cy="514.47" r="7.77"/><circle class="cls-3" cx="345.15" cy="514.47" r="7.77"/><circle class="cls-3" cx="281.72" cy="534.99" r="7.77"/><circle class="cls-3" cx="302.86" cy="534.99" r="7.77"/><circle class="cls-3" cx="324.01" cy="534.99" r="7.77"/><circle class="cls-3" cx="345.15" cy="534.99" r="7.77"/><circle class="cls-3" cx="281.72" cy="555.51" r="7.77"/><circle class="cls-3" cx="302.86" cy="555.51" r="7.77"/><circle class="cls-3" cx="324.01" cy="555.51" r="7.77"/><circle class="cls-3" cx="345.15" cy="555.51" r="7.77"/><circle class="cls-3" cx="281.72" cy="576.03" r="7.77"/><circle class="cls-3" cx="302.86" cy="576.03" r="7.77"/><circle class="cls-3" cx="324.01" cy="576.03" r="7.77"/><circle class="cls-3" cx="281.72" cy="596.55" r="7.77"/><circle class="cls-3" cx="302.86" cy="596.55" r="7.77"/><circle class="cls-3" cx="324.01" cy="596.55" r="7.77"/><text class="cls-4" transform="translate(273.95 183.04)">Baden-<tspan class="cls-5" x="53.47" y="0">W</tspan><tspan x="69.24" y="0">.</tspan></text><circle class="cls-3" cx="595.16" cy="206.67" r="7.77"/><circle class="cls-3" cx="616.31" cy="206.67" r="7.77"/><circle class="cls-3" cx="595.16" cy="227.19" r="7.77"/><circle class="cls-3" cx="616.31" cy="227.19" r="7.77"/><circle class="cls-3" cx="595.16" cy="247.71" r="7.77"/><circle class="cls-3" cx="616.31" cy="247.71" r="7.77"/><circle class="cls-3" cx="595.16" cy="268.23" r="7.77"/><circle class="cls-3" cx="616.31" cy="268.23" r="7.77"/><circle class="cls-3" cx="595.16" cy="288.75" r="7.77"/><circle class="cls-3" cx="595.16" cy="309.27" r="7.77"/><circle class="cls-3" cx="595.16" cy="329.79" r="7.77"/><circle class="cls-3" cx="595.16" cy="350.31" r="7.77"/><circle class="cls-3" cx="595.16" cy="370.83" r="7.77"/><circle class="cls-3" cx="595.16" cy="391.35" r="7.77"/><circle class="cls-3" cx="595.16" cy="411.87" r="7.77"/><circle class="cls-3" cx="595.16" cy="432.39" r="7.77"/><circle class="cls-3" cx="595.16" cy="452.91" r="7.77"/><circle class="cls-3" cx="595.16" cy="473.43" r="7.77"/><circle class="cls-3" cx="595.16" cy="493.95" r="7.77"/><circle class="cls-3" cx="595.16" cy="514.47" r="7.77"/><circle class="cls-3" cx="595.16" cy="534.99" r="7.77"/><circle class="cls-3" cx="595.16" cy="555.51" r="7.77"/><circle class="cls-3" cx="595.16" cy="576.03" r="7.77"/><circle class="cls-3" cx="595.16" cy="596.55" r="7.77"/><text class="cls-4" transform="translate(599.48 186.3) rotate(-90)">Schleswig-<tspan x="0" y="20.86">Holstein</tspan></text><circle class="cls-3" cx="543.14" cy="206.67" r="7.77"/><circle class="cls-3" cx="564.28" cy="206.67" r="7.77"/><circle class="cls-3" cx="543.14" cy="227.19" r="7.77"/><circle class="cls-3" cx="564.28" cy="227.19" r="7.77"/><circle class="cls-3" cx="543.14" cy="247.71" r="7.77"/><circle class="cls-3" cx="564.28" cy="247.71" r="7.77"/><circle class="cls-3" cx="543.14" cy="268.23" r="7.77"/><circle class="cls-3" cx="564.28" cy="268.23" r="7.77"/><circle class="cls-3" cx="543.14" cy="288.75" r="7.77"/><circle class="cls-3" cx="564.28" cy="288.75" r="7.77"/><circle class="cls-3" cx="543.14" cy="309.27" r="7.77"/><circle class="cls-3" cx="564.28" cy="309.27" r="7.77"/><circle class="cls-3" cx="543.14" cy="329.79" r="7.77"/><circle class="cls-3" cx="564.28" cy="329.79" r="7.77"/><circle class="cls-3" cx="543.14" cy="350.31" r="7.77"/><circle class="cls-3" cx="564.28" cy="350.31" r="7.77"/><circle class="cls-3" cx="543.14" cy="370.83" r="7.77"/><circle class="cls-3" cx="564.28" cy="370.83" r="7.77"/><circle class="cls-3" cx="543.14" cy="391.35" r="7.77"/><circle class="cls-3" cx="564.28" cy="391.35" r="7.77"/><circle class="cls-3" cx="543.14" cy="411.87" r="7.77"/><circle class="cls-3" cx="564.28" cy="411.87" r="7.77"/><circle class="cls-3" cx="543.14" cy="432.39" r="7.77"/><circle class="cls-3" cx="543.14" cy="452.91" r="7.77"/><circle class="cls-3" cx="543.14" cy="473.43" r="7.77"/><circle class="cls-3" cx="543.14" cy="493.95" r="7.77"/><circle class="cls-3" cx="543.14" cy="514.47" r="7.77"/><circle class="cls-3" cx="543.14" cy="534.99" r="7.77"/><circle class="cls-3" cx="543.14" cy="555.51" r="7.77"/><circle class="cls-3" cx="543.14" cy="576.03" r="7.77"/><circle class="cls-3" cx="543.14" cy="596.55" r="7.77"/><text class="cls-4" transform="translate(547.46 186.3) rotate(-90)">Rhineland-<tspan x="0" y="20.86">Palatinate</tspan></text><circle class="cls-3" cx="970.83" cy="206.67" r="7.77"/><circle class="cls-3" cx="949.69" cy="206.67" r="7.77"/><circle class="cls-3" cx="970.83" cy="227.19" r="7.77"/><circle class="cls-3" cx="949.69" cy="227.19" r="7.77"/><circle class="cls-3" cx="970.83" cy="247.71" r="7.77"/><circle class="cls-3" cx="949.69" cy="247.71" r="7.77"/><circle class="cls-3" cx="970.83" cy="268.23" r="7.77"/><circle class="cls-3" cx="949.69" cy="268.23" r="7.77"/><circle class="cls-3" cx="970.83" cy="288.75" r="7.77"/><circle class="cls-3" cx="949.69" cy="288.75" r="7.77"/><circle class="cls-3" cx="970.83" cy="309.27" r="7.77"/><circle class="cls-3" cx="949.69" cy="309.27" r="7.77"/><circle class="cls-3" cx="970.83" cy="329.79" r="7.77"/><circle class="cls-3" cx="949.69" cy="329.79" r="7.77"/><circle class="cls-3" cx="970.83" cy="350.31" r="7.77"/><circle class="cls-3" cx="949.69" cy="350.31" r="7.77"/><circle class="cls-3" cx="970.83" cy="370.83" r="7.77"/><circle class="cls-3" cx="949.69" cy="370.83" r="7.77"/><circle class="cls-3" cx="970.83" cy="391.35" r="7.77"/><circle class="cls-3" cx="949.69" cy="391.35" r="7.77"/><circle class="cls-3" cx="970.83" cy="411.87" r="7.77"/><circle class="cls-3" cx="949.69" cy="411.87" r="7.77"/><circle class="cls-3" cx="970.83" cy="432.39" r="7.77"/><circle class="cls-3" cx="949.69" cy="432.39" r="7.77"/><circle class="cls-3" cx="970.83" cy="452.91" r="7.77"/><circle class="cls-3" cx="949.69" cy="452.91" r="7.77"/><circle class="cls-3" cx="970.83" cy="473.43" r="7.77"/><circle class="cls-3" cx="970.83" cy="493.95" r="7.77"/><circle class="cls-3" cx="970.83" cy="514.47" r="7.77"/><circle class="cls-3" cx="970.83" cy="534.99" r="7.77"/><circle class="cls-3" cx="970.83" cy="555.51" r="7.77"/><circle class="cls-3" cx="970.83" cy="576.03" r="7.77"/><circle class="cls-3" cx="970.83" cy="596.55" r="7.77"/><text class="cls-4" transform="translate(954.01 186.3) rotate(-90)">Saxony</text><polygon class="cls-1" points="488.51 103.69 488.27 109.46 486.69 108.59 486.02 105.93 483.89 107.05 479.96 104.9 477.76 94.07 482.71 95.25 484.2 98.59 491.33 98.93 487.65 102.3 488.51 103.69"/><polygon class="cls-1" points="488.27 109.46 492 111.62 506.46 109.12 503.73 99.52 488.51 103.69 488.27 109.46"/><polygon class="cls-1" points="492 111.62 497.37 114.23 496.83 119.9 502.05 122.06 502.05 124.79 510.76 124.27 506.46 109.12 492 111.62"/><polygon class="cls-1" points="502.05 124.79 496.88 124.9 496.88 128.41 499.16 128.41 499.47 129.67 494.72 133.78 497.75 137.43 511.94 128.41 510.76 124.27 502.05 124.79"/><polygon class="cls-1" points="492 111.62 489.5 114.79 490.75 119.94 488.27 120.5 488.55 123.74 495.71 130.56 496.88 128.41 496.88 124.9 502.05 124.79 502.05 122.06 496.83 119.9 497.37 114.23 492 111.62"/><polygon class="cls-1" points="488.55 123.74 484.64 126.25 486.6 128.21 484.64 132.18 488.55 135.14 494.72 133.78 499.47 129.67 499.16 128.41 496.88 128.41 495.71 130.56 488.55 123.74"/><polygon class="cls-2" points="484.64 132.18 482.07 137.43 479.33 137.43 479.94 142.07 475.54 141.41 473.24 137.13 481.88 123.01 484.64 126.25 486.6 128.21 484.64 132.18"/><polygon class="cls-1" points="479.94 142.07 483.41 140.17 487.83 148.34 484.36 151.97 485.76 159 502.69 158.33 500.44 155.12 507.34 150.2 495.89 138.61 497.75 137.43 494.72 133.78 488.55 135.14 484.64 132.18 482.07 137.43 479.33 137.43 479.94 142.07"/><polygon class="cls-1" points="475.54 141.41 475.15 146.49 468.92 159.67 485.76 159 484.36 151.97 487.83 148.34 483.41 140.17 479.94 142.07 475.54 141.41"/><polygon class="cls-1" points="468.92 140.51 470.77 146.03 466.7 145.59 465.94 142.07 468.92 140.51"/><polygon class="cls-1" points="475.24 133.8 473.24 129.44 464.3 134.36 462.32 125.12 468.78 119.75 473.57 115.8 474.47 120.16 476.98 119.77 476.54 116.81 481.88 123.01 475.24 133.8"/><polygon class="cls-1" points="464.3 134.36 473.24 129.44 475.24 133.8 473.24 137.13 475.54 141.41 475.15 146.49 470.77 146.03 468.92 140.51 465.94 142.07 464.3 134.36"/><polygon class="cls-1" points="479.96 104.9 483.89 107.05 484.37 109.4 486.69 108.59 492 111.62 489.5 114.79 490.75 119.94 488.27 120.5 488.55 123.74 484.64 126.25 476.54 116.81 476.98 119.77 474.47 120.16 473.57 115.8 468.78 119.75 468.75 105.99 475.69 107.53 479.96 104.9"/><polygon class="cls-1" points="477.76 110.14 477.47 111.03 479.74 112.52 480.38 111.11 477.76 110.14"/><polygon class="cls-1" points="502.12 115.13 501.38 117.15 504.31 117.66 504.96 116.72 503.25 114.86 502.12 115.13"/><circle class="cls-3" cx="470.09" cy="206.67" r="7.77"/><circle class="cls-3" cx="491.24" cy="206.67" r="7.77"/><circle class="cls-3" cx="512.38" cy="206.67" r="7.77"/><circle class="cls-3" cx="470.09" cy="227.19" r="7.77"/><circle class="cls-3" cx="491.24" cy="227.19" r="7.77"/><circle class="cls-3" cx="512.38" cy="227.19" r="7.77"/><circle class="cls-3" cx="470.09" cy="247.71" r="7.77"/><circle class="cls-3" cx="491.24" cy="247.71" r="7.77"/><circle class="cls-3" cx="512.38" cy="247.71" r="7.77"/><circle class="cls-3" cx="470.09" cy="268.23" r="7.77"/><circle class="cls-3" cx="491.24" cy="268.23" r="7.77"/><circle class="cls-3" cx="512.38" cy="268.23" r="7.77"/><circle class="cls-3" cx="470.09" cy="288.75" r="7.77"/><circle class="cls-3" cx="491.24" cy="288.75" r="7.77"/><circle class="cls-3" cx="512.38" cy="288.75" r="7.77"/><circle class="cls-3" cx="470.09" cy="309.27" r="7.77"/><circle class="cls-3" cx="491.24" cy="309.27" r="7.77"/><circle class="cls-3" cx="470.09" cy="329.79" r="7.77"/><circle class="cls-3" cx="491.24" cy="329.79" r="7.77"/><circle class="cls-3" cx="470.09" cy="350.31" r="7.77"/><circle class="cls-3" cx="491.24" cy="350.31" r="7.77"/><circle class="cls-3" cx="470.09" cy="370.83" r="7.77"/><circle class="cls-3" cx="491.24" cy="370.83" r="7.77"/><circle class="cls-3" cx="470.09" cy="391.35" r="7.77"/><circle class="cls-3" cx="491.24" cy="391.35" r="7.77"/><circle class="cls-3" cx="470.09" cy="411.87" r="7.77"/><circle class="cls-3" cx="491.24" cy="411.87" r="7.77"/><circle class="cls-3" cx="470.09" cy="432.39" r="7.77"/><circle class="cls-3" cx="491.24" cy="432.39" r="7.77"/><circle class="cls-3" cx="470.09" cy="452.91" r="7.77"/><circle class="cls-3" cx="491.24" cy="452.91" r="7.77"/><circle class="cls-3" cx="470.09" cy="473.43" r="7.77"/><circle class="cls-3" cx="491.24" cy="473.43" r="7.77"/><circle class="cls-3" cx="470.09" cy="493.95" r="7.77"/><circle class="cls-3" cx="491.24" cy="493.95" r="7.77"/><circle class="cls-3" cx="470.09" cy="514.47" r="7.77"/><circle class="cls-3" cx="491.24" cy="514.47" r="7.77"/><circle class="cls-3" cx="470.09" cy="534.99" r="7.77"/><circle class="cls-3" cx="491.24" cy="534.99" r="7.77"/><circle class="cls-3" cx="470.09" cy="555.51" r="7.77"/><circle class="cls-3" cx="491.24" cy="555.51" r="7.77"/><circle class="cls-3" cx="470.09" cy="576.03" r="7.77"/><circle class="cls-3" cx="491.24" cy="576.03" r="7.77"/><circle class="cls-3" cx="470.09" cy="596.55" r="7.77"/><circle class="cls-3" cx="491.24" cy="596.55" r="7.77"/><text class="cls-4" transform="translate(462.32 183.04)">Hessen</text><polygon class="cls-1" points="394.33 103.69 394.09 109.46 392.51 108.59 391.83 105.93 389.7 107.05 385.77 104.9 383.57 94.07 388.52 95.25 390.02 98.59 397.14 98.93 393.46 102.3 394.33 103.69"/><polygon class="cls-1" points="394.09 109.46 397.81 111.62 412.27 109.12 409.54 99.52 394.33 103.69 394.09 109.46"/><polygon class="cls-1" points="397.81 111.62 403.18 114.23 402.64 119.9 407.86 122.06 407.86 124.79 416.57 124.27 412.27 109.12 397.81 111.62"/><polygon class="cls-1" points="407.86 124.79 402.7 124.9 402.7 128.41 404.98 128.41 405.28 129.67 400.53 133.78 403.57 137.43 417.75 128.41 416.57 124.27 407.86 124.79"/><polygon class="cls-1" points="397.81 111.62 395.32 114.79 396.56 119.94 394.09 120.5 394.37 123.74 401.52 130.56 402.7 128.41 402.7 124.9 407.86 124.79 407.86 122.06 402.64 119.9 403.18 114.23 397.81 111.62"/><polygon class="cls-1" points="394.37 123.74 390.45 126.25 392.41 128.21 390.45 132.18 394.37 135.14 400.53 133.78 405.28 129.67 404.98 128.41 402.7 128.41 401.52 130.56 394.37 123.74"/><polygon class="cls-1" points="390.45 132.18 387.88 137.43 385.14 137.43 385.76 142.07 381.35 141.41 379.05 137.13 387.69 123.01 390.45 126.25 392.41 128.21 390.45 132.18"/><polygon class="cls-1" points="385.76 142.07 389.23 140.17 393.64 148.34 390.18 151.97 391.57 159 408.5 158.33 406.25 155.12 413.15 150.2 401.7 138.61 403.57 137.43 400.53 133.78 394.37 135.14 390.45 132.18 387.88 137.43 385.14 137.43 385.76 142.07"/><polygon class="cls-1" points="381.35 141.41 380.96 146.49 374.74 159.67 391.57 159 390.18 151.97 393.64 148.34 389.23 140.17 385.76 142.07 381.35 141.41"/><polygon class="cls-1" points="374.74 140.51 376.58 146.03 372.51 145.59 371.76 142.07 374.74 140.51"/><polygon class="cls-1" points="381.06 133.8 379.05 129.44 370.11 134.36 368.13 125.12 374.6 119.75 379.39 115.8 380.28 120.16 382.8 119.77 382.35 116.81 387.69 123.01 381.06 133.8"/><polygon class="cls-1" points="370.11 134.36 379.05 129.44 381.06 133.8 379.05 137.13 381.35 141.41 380.96 146.49 376.58 146.03 374.74 140.51 371.76 142.07 370.11 134.36"/><polygon class="cls-2" points="385.77 104.9 389.7 107.05 390.18 109.4 392.51 108.59 397.81 111.62 395.32 114.79 396.56 119.94 394.09 120.5 394.37 123.74 390.45 126.25 382.35 116.81 382.8 119.77 380.28 120.16 379.39 115.8 374.6 119.75 374.57 105.99 381.51 107.53 385.77 104.9"/><polygon class="cls-1" points="383.57 110.14 383.29 111.03 385.56 112.52 386.19 111.11 383.57 110.14"/><polygon class="cls-1" points="407.94 115.13 407.19 117.15 410.12 117.66 410.78 116.72 409.06 114.86 407.94 115.13"/><circle class="cls-3" cx="375.91" cy="206.67" r="7.77"/><circle class="cls-3" cx="397.05" cy="206.67" r="7.77"/><circle class="cls-3" cx="418.19" cy="206.67" r="7.77"/><circle class="cls-3" cx="439.33" cy="206.67" r="7.77"/><circle class="cls-3" cx="375.91" cy="227.19" r="7.77"/><circle class="cls-3" cx="397.05" cy="227.19" r="7.77"/><circle class="cls-3" cx="418.19" cy="227.19" r="7.77"/><circle class="cls-3" cx="439.33" cy="227.19" r="7.77"/><circle class="cls-3" cx="375.91" cy="247.71" r="7.77"/><circle class="cls-3" cx="397.05" cy="247.71" r="7.77"/><circle class="cls-3" cx="418.19" cy="247.71" r="7.77"/><circle class="cls-3" cx="439.33" cy="247.71" r="7.77"/><circle class="cls-3" cx="375.91" cy="268.23" r="7.77"/><circle class="cls-3" cx="397.05" cy="268.23" r="7.77"/><circle class="cls-3" cx="418.19" cy="268.23" r="7.77"/><circle class="cls-3" cx="439.33" cy="268.23" r="7.77"/><circle class="cls-3" cx="375.91" cy="288.75" r="7.77"/><circle class="cls-3" cx="397.05" cy="288.75" r="7.77"/><circle class="cls-3" cx="418.19" cy="288.75" r="7.77"/><circle class="cls-3" cx="439.33" cy="288.75" r="7.77"/><circle class="cls-3" cx="375.91" cy="309.27" r="7.77"/><circle class="cls-3" cx="397.05" cy="309.27" r="7.77"/><circle class="cls-3" cx="418.19" cy="309.27" r="7.77"/><circle class="cls-3" cx="439.33" cy="309.27" r="7.77"/><circle class="cls-3" cx="375.91" cy="329.79" r="7.77"/><circle class="cls-3" cx="397.05" cy="329.79" r="7.77"/><circle class="cls-3" cx="418.19" cy="329.79" r="7.77"/><circle class="cls-3" cx="375.91" cy="350.31" r="7.77"/><circle class="cls-3" cx="397.05" cy="350.31" r="7.77"/><circle class="cls-3" cx="418.19" cy="350.31" r="7.77"/><circle class="cls-3" cx="375.91" cy="370.83" r="7.77"/><circle class="cls-3" cx="397.05" cy="370.83" r="7.77"/><circle class="cls-3" cx="418.19" cy="370.83" r="7.77"/><circle class="cls-3" cx="375.91" cy="391.35" r="7.77"/><circle class="cls-3" cx="397.05" cy="391.35" r="7.77"/><circle class="cls-3" cx="418.19" cy="391.35" r="7.77"/><circle class="cls-3" cx="375.91" cy="411.87" r="7.77"/><circle class="cls-3" cx="397.05" cy="411.87" r="7.77"/><circle class="cls-3" cx="418.19" cy="411.87" r="7.77"/><circle class="cls-3" cx="375.91" cy="432.39" r="7.77"/><circle class="cls-3" cx="397.05" cy="432.39" r="7.77"/><circle class="cls-3" cx="418.19" cy="432.39" r="7.77"/><circle class="cls-3" cx="375.91" cy="452.91" r="7.77"/><circle class="cls-3" cx="397.05" cy="452.91" r="7.77"/><circle class="cls-3" cx="418.19" cy="452.91" r="7.77"/><circle class="cls-3" cx="375.91" cy="473.43" r="7.77"/><circle class="cls-3" cx="397.05" cy="473.43" r="7.77"/><circle class="cls-3" cx="418.19" cy="473.43" r="7.77"/><circle class="cls-3" cx="375.91" cy="493.95" r="7.77"/><circle class="cls-3" cx="397.05" cy="493.95" r="7.77"/><circle class="cls-3" cx="418.19" cy="493.95" r="7.77"/><circle class="cls-3" cx="375.91" cy="514.47" r="7.77"/><circle class="cls-3" cx="397.05" cy="514.47" r="7.77"/><circle class="cls-3" cx="418.19" cy="514.47" r="7.77"/><circle class="cls-3" cx="375.91" cy="534.99" r="7.77"/><circle class="cls-3" cx="397.05" cy="534.99" r="7.77"/><circle class="cls-3" cx="418.19" cy="534.99" r="7.77"/><circle class="cls-3" cx="375.91" cy="555.51" r="7.77"/><circle class="cls-3" cx="397.05" cy="555.51" r="7.77"/><circle class="cls-3" cx="418.19" cy="555.51" r="7.77"/><circle class="cls-3" cx="375.91" cy="576.03" r="7.77"/><circle class="cls-3" cx="397.05" cy="576.03" r="7.77"/><circle class="cls-3" cx="418.19" cy="576.03" r="7.77"/><circle class="cls-3" cx="375.91" cy="596.55" r="7.77"/><circle class="cls-3" cx="397.05" cy="596.55" r="7.77"/><circle class="cls-3" cx="418.19" cy="596.55" r="7.77"/><text class="cls-4" transform="translate(368.13 183.04)">L. Saxony</text><circle class="cls-3" cx="710.73" cy="206.67" r="7.77"/><circle class="cls-3" cx="710.73" cy="227.19" r="7.77"/><circle class="cls-3" cx="710.73" cy="247.71" r="7.77"/><circle class="cls-3" cx="710.73" cy="268.23" r="7.77"/><circle class="cls-3" cx="710.73" cy="288.75" r="7.77"/><circle class="cls-3" cx="710.73" cy="309.27" r="7.77"/><text class="cls-4" transform="translate(715.05 186.3) rotate(-90)">Bremen</text><circle class="cls-3" cx="679.56" cy="206.67" r="7.77"/><circle class="cls-3" cx="679.56" cy="227.19" r="7.77"/><circle class="cls-3" cx="679.56" cy="247.71" r="7.77"/><circle class="cls-3" cx="679.56" cy="268.23" r="7.77"/><circle class="cls-3" cx="679.56" cy="288.75" r="7.77"/><circle class="cls-3" cx="679.56" cy="309.27" r="7.77"/><circle class="cls-3" cx="679.56" cy="329.79" r="7.77"/><circle class="cls-3" cx="679.56" cy="350.31" r="7.77"/><circle class="cls-3" cx="679.56" cy="370.83" r="7.77"/><text class="cls-4" transform="translate(683.87 186.3) rotate(-90)">Saarland</text><circle class="cls-3" cx="826.41" cy="206.67" r="7.77"/><circle class="cls-3" cx="826.41" cy="227.19" r="7.77"/><circle class="cls-3" cx="826.41" cy="247.71" r="7.77"/><circle class="cls-3" cx="826.41" cy="268.23" r="7.77"/><circle class="cls-3" cx="826.41" cy="288.75" r="7.77"/><circle class="cls-3" cx="826.41" cy="309.27" r="7.77"/><circle class="cls-3" cx="826.41" cy="329.79" r="7.77"/><circle class="cls-3" cx="826.41" cy="350.31" r="7.77"/><circle class="cls-3" cx="826.41" cy="370.83" r="7.77"/><circle class="cls-3" cx="826.41" cy="391.35" r="7.77"/><circle class="cls-3" cx="826.41" cy="411.87" r="7.77"/><circle class="cls-3" cx="826.41" cy="432.39" r="7.77"/><circle class="cls-3" cx="826.41" cy="452.91" r="7.77"/><text class="cls-4" transform="translate(830.73 186.3) rotate(-90)">Meck.-<tspan class="cls-7" x="50.86" y="0">V</tspan><tspan class="cls-8" x="59.22" y="0">.</tspan></text><circle class="cls-9" cx="648.38" cy="206.67" r="7.77"/><circle class="cls-9" cx="648.38" cy="227.19" r="7.77"/><circle class="cls-9" cx="648.38" cy="247.71" r="7.77"/><circle class="cls-9" cx="648.38" cy="268.23" r="7.77"/><circle class="cls-9" cx="648.38" cy="288.75" r="7.77"/><circle class="cls-9" cx="648.38" cy="309.27" r="7.77"/><circle class="cls-9" cx="648.38" cy="329.79" r="7.77"/><circle class="cls-9" cx="648.38" cy="350.31" r="7.77"/><circle class="cls-9" cx="648.38" cy="370.83" r="7.77"/><circle class="cls-9" cx="648.38" cy="391.35" r="7.77"/><circle class="cls-9" cx="648.38" cy="411.87" r="7.77"/><circle class="cls-9" cx="648.38" cy="432.39" r="7.77"/><circle class="cls-9" cx="648.38" cy="452.91" r="7.77"/><text class="cls-10" transform="translate(652.7 186.3) rotate(-90)">Hamburg</text><circle class="cls-3" cx="857.59" cy="206.67" r="7.77"/><circle class="cls-3" cx="857.59" cy="227.19" r="7.77"/><circle class="cls-3" cx="857.59" cy="247.71" r="7.77"/><circle class="cls-3" cx="857.59" cy="268.23" r="7.77"/><circle class="cls-3" cx="857.59" cy="288.75" r="7.77"/><circle class="cls-3" cx="857.59" cy="309.27" r="7.77"/><circle class="cls-3" cx="857.59" cy="329.79" r="7.77"/><circle class="cls-3" cx="857.59" cy="350.31" r="7.77"/><circle class="cls-3" cx="857.59" cy="370.83" r="7.77"/><circle class="cls-3" cx="857.59" cy="391.35" r="7.77"/><circle class="cls-3" cx="857.59" cy="411.87" r="7.77"/><circle class="cls-3" cx="857.59" cy="432.39" r="7.77"/><circle class="cls-3" cx="857.59" cy="452.91" r="7.77"/><circle class="cls-3" cx="857.59" cy="473.43" r="7.77"/><circle class="cls-3" cx="857.59" cy="493.95" r="7.77"/><circle class="cls-3" cx="857.59" cy="514.47" r="7.77"/><circle class="cls-3" cx="857.59" cy="534.99" r="7.77"/><circle class="cls-3" cx="857.59" cy="555.51" r="7.77"/><text class="cls-4" transform="translate(861.91 186.28) rotate(-90)">Thuringia</text><circle class="cls-3" cx="888.77" cy="206.67" r="7.77"/><circle class="cls-3" cx="888.77" cy="227.19" r="7.77"/><circle class="cls-3" cx="888.77" cy="247.71" r="7.77"/><circle class="cls-3" cx="888.77" cy="268.23" r="7.77"/><circle class="cls-3" cx="888.77" cy="288.75" r="7.77"/><circle class="cls-3" cx="888.77" cy="309.27" r="7.77"/><circle class="cls-3" cx="888.77" cy="329.79" r="7.77"/><circle class="cls-3" cx="888.77" cy="350.31" r="7.77"/><circle class="cls-3" cx="888.77" cy="370.83" r="7.77"/><circle class="cls-3" cx="888.77" cy="391.35" r="7.77"/><circle class="cls-3" cx="888.77" cy="411.87" r="7.77"/><circle class="cls-3" cx="888.77" cy="432.39" r="7.77"/><circle class="cls-3" cx="888.77" cy="452.91" r="7.77"/><circle class="cls-3" cx="888.77" cy="473.43" r="7.77"/><circle class="cls-3" cx="888.77" cy="493.95" r="7.77"/><circle class="cls-3" cx="888.77" cy="514.47" r="7.77"/><circle class="cls-3" cx="888.77" cy="534.99" r="7.77"/><circle class="cls-3" cx="888.77" cy="555.51" r="7.77"/><circle class="cls-3" cx="888.77" cy="576.03" r="7.77"/><text class="cls-4" transform="translate(893.09 186.3) rotate(-90)">Saxony-A.</text><circle class="cls-3" cx="919.95" cy="206.67" r="7.77"/><circle class="cls-3" cx="919.95" cy="227.19" r="7.77"/><circle class="cls-3" cx="919.95" cy="247.71" r="7.77"/><circle class="cls-3" cx="919.95" cy="268.23" r="7.77"/><circle class="cls-3" cx="919.95" cy="288.75" r="7.77"/><circle class="cls-3" cx="919.95" cy="309.27" r="7.77"/><circle class="cls-3" cx="919.95" cy="329.79" r="7.77"/><circle class="cls-3" cx="919.95" cy="350.31" r="7.77"/><circle class="cls-3" cx="919.95" cy="370.83" r="7.77"/><circle class="cls-3" cx="919.95" cy="391.35" r="7.77"/><circle class="cls-3" cx="919.95" cy="411.87" r="7.77"/><circle class="cls-3" cx="919.95" cy="432.39" r="7.77"/><circle class="cls-3" cx="919.95" cy="452.91" r="7.77"/><circle class="cls-3" cx="919.95" cy="473.43" r="7.77"/><circle class="cls-3" cx="919.95" cy="493.95" r="7.77"/><circle class="cls-3" cx="919.95" cy="514.47" r="7.77"/><circle class="cls-3" cx="919.95" cy="534.99" r="7.77"/><circle class="cls-3" cx="919.95" cy="555.51" r="7.77"/><circle class="cls-3" cx="919.95" cy="576.03" r="7.77"/><circle class="cls-3" cx="919.95" cy="596.55" r="7.77"/><text class="cls-4" transform="translate(924.27 186.3) rotate(-90)">Brandenb.</text><text class="cls-10" transform="translate(762.53 186.3) rotate(-90)">Berlin</text><text class="cls-11" transform="translate(832.25 641.09)">former East <tspan x="0" y="20.86">German states</tspan></text><text class="cls-11" transform="translate(502.66 641.09)">former <tspan class="cls-12" x="53.12" y="0">W</tspan><tspan x="69.84" y="0">est German states</tspan></text><text class="cls-13" transform="translate(640.5 484.38)">13</text><text class="cls-13" transform="translate(749.47 357.08)">24</text><line class="cls-14" x1="736.15" y1="623.08" x2="736.15" y2="648.96"/><line class="cls-15" x1="736.15" y1="636.14" x2="719.21" y2="636.14"/><polygon class="cls-9" points="724.18 630 725.2 631.1 719.78 636.13 725.2 641.17 724.18 642.27 717.58 636.13 724.18 630"/><line class="cls-14" x1="807.36" y1="648.96" x2="807.36" y2="623.08"/><line class="cls-15" x1="807.36" y1="635.9" x2="824.31" y2="635.9"/><polygon class="cls-9" points="819.34 642.03 818.32 640.93 823.73 635.9 818.32 630.86 819.34 629.76 825.94 635.9 819.34 642.03"/><circle class="cls-9" cx="779.35" cy="206.67" r="7.77"/><circle class="cls-9" cx="758.21" cy="206.67" r="7.77"/><circle class="cls-9" cx="779.35" cy="227.19" r="7.77"/><circle class="cls-9" cx="758.21" cy="227.19" r="7.77"/><circle class="cls-9" cx="779.35" cy="247.71" r="7.77"/><circle class="cls-9" cx="758.21" cy="247.71" r="7.77"/><circle class="cls-9" cx="779.35" cy="268.23" r="7.77"/><circle class="cls-9" cx="758.21" cy="268.23" r="7.77"/><circle class="cls-9" cx="779.35" cy="288.75" r="7.77"/><circle class="cls-9" cx="758.21" cy="288.75" r="7.77"/><circle class="cls-9" cx="779.35" cy="309.27" r="7.77"/><circle class="cls-9" cx="758.21" cy="309.27" r="7.77"/><circle class="cls-9" cx="779.35" cy="329.79" r="7.77"/><circle class="cls-9" cx="758.21" cy="329.79" r="7.77"/><circle class="cls-9" cx="779.35" cy="350.31" r="7.77"/><circle class="cls-9" cx="779.35" cy="370.83" r="7.77"/><circle class="cls-9" cx="779.35" cy="391.35" r="7.77"/><circle class="cls-9" cx="779.35" cy="411.87" r="7.77"/><circle class="cls-9" cx="779.35" cy="432.39" r="7.77"/><circle class="cls-9" cx="779.35" cy="452.91" r="7.77"/><circle class="cls-9" cx="779.35" cy="473.43" r="7.77"/><circle class="cls-9" cx="779.35" cy="493.95" r="7.77"/><circle class="cls-9" cx="779.35" cy="514.47" r="7.77"/><circle class="cls-9" cx="779.35" cy="534.99" r="7.77"/><circle class="cls-9" cx="779.35" cy="555.51" r="7.77"/><circle class="cls-9" cx="779.35" cy="576.03" r="7.77"/><circle class="cls-9" cx="779.35" cy="596.55" r="7.77"/><text class="cls-16" transform="translate(0 40.32)">How many seats per state can be won by the parties with the Second <tspan class="cls-17" x="715.8" y="0">V</tspan><tspan x="728.66" y="0">ote</tspan></text><line class="cls-18" y1="7.25" x2="762.31" y2="7.25"/></g></svg>