<svg xmlns="http://www.w3.org/2000/svg" viewBox="0 0 979.37 320.97"><defs><style>.cls-1{fill:#231f20;}.cls-2{fill:#eb1c24;}.cls-3{fill:#8f278d;}.cls-4{fill:#8ac43f;}.cls-13,.cls-16,.cls-5{font-size:21.2px;}.cls-12,.cls-5{font-family:AkzidenzGroteskCE-Black, Akzidenz Grotesk CE Roman;}.cls-12,.cls-6{font-weight:700;}.cls-10,.cls-13,.cls-16,.cls-7,.cls-8,.cls-9{font-family:AkzidenzGroteskCE-Roman, Akzidenz Grotesk CE Roman;}.cls-8{letter-spacing:-0.04em;}.cls-9{letter-spacing:-0.09em;}.cls-10{font-size:14px;}.cls-11{letter-spacing:-0.07em;}.cls-12{font-size:19px;fill:#fff;}.cls-14{fill:#a5a7aa;}.cls-15,.cls-17{fill:none;stroke-miterlimit:10;}.cls-15{stroke:#fff;stroke-width:3px;}.cls-16{fill:#58595b;}.cls-17{stroke:#231f20;stroke-width:2px;}</style></defs><title>Artboard 3 copy 4</title><g id="Layer_3" data-name="Layer 3"><circle class="cls-1" cx="297.02" cy="25.76" r="11.66"/><circle class="cls-1" cx="327.82" cy="25.76" r="11.66"/><circle class="cls-1" cx="358.61" cy="25.76" r="11.66"/><circle class="cls-1" cx="389.41" cy="25.76" r="11.66"/><circle class="cls-1" cx="420.2" cy="25.76" r="11.66"/><circle class="cls-2" cx="451" cy="25.76" r="11.66"/><circle class="cls-2" cx="481.79" cy="25.76" r="11.66"/><circle class="cls-2" cx="512.59" cy="25.76" r="11.66"/><circle class="cls-2" cx="543.38" cy="25.76" r="11.66"/><circle class="cls-2" cx="574.17" cy="25.76" r="11.66"/><circle class="cls-3" cx="604.97" cy="25.76" r="11.66"/><circle class="cls-4" cx="635.76" cy="25.76" r="11.66"/><circle class="cls-4" cx="666.56" cy="25.76" r="11.66"/><text class="cls-5" transform="translate(96.72 83.51)"><tspan class="cls-6">1</tspan><tspan class="cls-7" x="11.79" y="0" xml:space="preserve"> Marcus </tspan><tspan class="cls-8" x="91.08" y="0">W</tspan><tspan class="cls-7" x="111.47" y="0">einberg</tspan><tspan class="cls-6" x="0" y="25.44">2</tspan><tspan class="cls-7" x="11.79" y="25.44" xml:space="preserve"> Rüdiger Kruse</tspan><tspan class="cls-6" x="0" y="50.88">3</tspan><tspan class="cls-7" x="11.79" y="50.88" xml:space="preserve"> D</tspan><tspan class="cls-9" x="32.61" y="50.88">r</tspan><tspan class="cls-7" x="37.72" y="50.88">. Herlind Gundelach</tspan><tspan class="cls-6" x="0" y="76.32">4</tspan><tspan class="cls-7" x="11.79" y="76.32" xml:space="preserve"> Dirk Erik Fischer</tspan><tspan class="cls-10"><tspan x="0" y="97.32" xml:space="preserve">5   Jürgen Klimke</tspan><tspan x="0" y="114.12" xml:space="preserve">6   Dirk Christian Mar</tspan><tspan x="0" y="130.92" xml:space="preserve">7   Marita Meye</tspan><tspan class="cls-11" x="92.81" y="130.92">r</tspan><tspan x="96.43" y="130.92">-Kainer</tspan><tspan x="0" y="147.72" xml:space="preserve">8   Harald Krüger</tspan><tspan x="0" y="164.52" xml:space="preserve">9   Hermine Hecker</tspan><tspan x="0" y="181.32">10 Klaus-Peter Hesse</tspan><tspan x="0" y="198.12">11 Roland Heintze</tspan><tspan x="0" y="214.92">12 Jobst-Egbert von </tspan><tspan x="0" y="231.72" xml:space="preserve">     Frankenberg und Proschlitz</tspan></tspan></text><text class="cls-12" transform="translate(322.39 32.02)">1</text><text class="cls-12" transform="translate(353.33 32.02)">2</text><text class="cls-12" transform="translate(630.34 32.02)">1</text><text class="cls-12" transform="translate(599.69 32.02)">1</text><text class="cls-12" transform="translate(661.28 32.02)">2</text><text class="cls-12" transform="translate(383.98 32.02)">3</text><text class="cls-12" transform="translate(414.92 32.02)">4</text><text class="cls-13" transform="translate(693.65 32.24)">The remaining four CDU seats <tspan x="0" y="25.44">in Hamburg went to the first </tspan><tspan x="0" y="50.88">four peeps on their state list. </tspan><tspan class="cls-14"><tspan x="0" y="76.32">The </tspan><tspan class="cls-2" x="39.69" y="76.32">SPD</tspan><tspan x="82.11" y="76.32" xml:space="preserve"> already filled all their </tspan><tspan x="0" y="101.76">seats with direct candidates, </tspan><tspan x="0" y="127.21">so no-one on their state list </tspan><tspan x="0" y="152.65">won a seat. The</tspan><tspan class="cls-3" x="143.74" y="152.65" xml:space="preserve"> left party</tspan><tspan x="227.4" y="152.65" xml:space="preserve"> filled </tspan><tspan x="0" y="178.09">their seat with the first place of </tspan><tspan x="0" y="203.53">their state list; the </tspan><tspan class="cls-4" x="164.98" y="203.53">Greens </tspan><tspan x="238.42" y="203.53">with </tspan><tspan x="0" y="228.97">the first two places of their list.</tspan></tspan></text><line class="cls-15" x1="290.96" y1="19.7" x2="303.08" y2="31.81"/><line class="cls-15" x1="303.08" y1="19.7" x2="290.96" y2="31.81"/><line class="cls-15" x1="445.18" y1="19.7" x2="457.29" y2="31.81"/><line class="cls-15" x1="457.29" y1="19.7" x2="445.18" y2="31.81"/><line class="cls-15" x1="475.73" y1="19.7" x2="487.85" y2="31.81"/><line class="cls-15" x1="487.85" y1="19.7" x2="475.73" y2="31.81"/><line class="cls-15" x1="506.53" y1="19.7" x2="518.64" y2="31.81"/><line class="cls-15" x1="518.64" y1="19.7" x2="506.53" y2="31.81"/><line class="cls-15" x1="537.84" y1="19.7" x2="549.95" y2="31.81"/><line class="cls-15" x1="549.95" y1="19.7" x2="537.84" y2="31.81"/><line class="cls-15" x1="568.39" y1="19.7" x2="580.51" y2="31.81"/><line class="cls-15" x1="580.51" y1="19.7" x2="568.39" y2="31.81"/><text class="cls-16" transform="translate(30.68 84.51)">CDU <tspan x="-28.3" y="25.44">state list</tspan><tspan x="-1.23" y="50.88">2013</tspan></text><path class="cls-17" d="M285.36,77.63c25.85,3.16,38.31-11,39-29.27"/><polygon class="cls-1" points="331.86 55.58 330.3 56.83 324.16 49.11 316.91 55.8 315.55 54.33 324.38 46.19 331.86 55.58"/><path class="cls-17" d="M255,104.11c25.55-.34,44.69,1.81,59.36-1.85,33.95-8.48,42.69-29.4,42.92-52.78"/><polygon class="cls-1" points="365.19 56.35 363.68 57.67 357.19 50.24 350.26 57.26 348.84 55.85 357.28 47.31 365.19 56.35"/><path class="cls-17" d="M324.38,128.76c68.55,0,65.24-48.19,66.15-76.92"/><polygon class="cls-1" points="398.56 58.68 397.06 60.01 390.54 52.61 383.63 59.65 382.2 58.25 390.62 49.67 398.56 58.68"/><path class="cls-17" d="M270.89,156.08c51.62.93,97.54,1.21,119.73-14.08,35.57-24.5,30-70.87,30.23-90.17"/><polygon class="cls-1" points="429.07 58.47 427.61 59.83 420.89 52.61 414.18 59.83 412.71 58.47 420.9 49.67 429.07 58.47"/></g></svg>