<svg xmlns="http://www.w3.org/2000/svg" viewBox="0 0 979.37 252.92"><defs><style>.cls-1{fill:#231f20;}.cls-2{fill:#eb1c24;}.cls-3{fill:#8f278d;}.cls-4{fill:#8ac43f;}.cls-14,.cls-5,.cls-7{font-size:21.2px;font-family:AkzidenzGroteskCE-Roman, Akzidenz Grotesk CE Roman;}.cls-6{letter-spacing:-0.07em;}.cls-7{fill:#a5a7aa;}.cls-8{fill:#dfdfdf;}.cls-10,.cls-11,.cls-12,.cls-9{fill:none;stroke-miterlimit:10;stroke-width:3px;}.cls-9{stroke:#231f20;}.cls-10{stroke:#eb1c24;}.cls-11{stroke:#8f278d;}.cls-12{stroke:#9eca3a;}.cls-13{fill:#9eca3a;}.cls-14{fill:#fff;}</style></defs><title>Artboard 3 copy 2</title><g id="Layer_3" data-name="Layer 3"><circle class="cls-1" cx="297.02" cy="172.46" r="11.66"/><circle class="cls-1" cx="327.82" cy="172.46" r="11.66"/><circle class="cls-1" cx="358.61" cy="172.46" r="11.66"/><circle class="cls-1" cx="389.41" cy="172.46" r="11.66"/><circle class="cls-1" cx="420.2" cy="172.46" r="11.66"/><circle class="cls-2" cx="451" cy="172.46" r="11.66"/><circle class="cls-2" cx="481.79" cy="172.46" r="11.66"/><circle class="cls-2" cx="512.59" cy="172.46" r="11.66"/><circle class="cls-2" cx="543.38" cy="172.46" r="11.66"/><circle class="cls-2" cx="574.17" cy="172.46" r="11.66"/><circle class="cls-3" cx="604.97" cy="172.46" r="11.66"/><circle class="cls-4" cx="635.76" cy="172.46" r="11.66"/><circle class="cls-4" cx="666.56" cy="172.46" r="11.66"/><text class="cls-5" transform="translate(2.98 24.82)">The Second <tspan class="cls-6" x="115.88" y="0">V</tspan><tspan x="127.25" y="0">ote decides </tspan><tspan x="0" y="25.44">how the available seats in </tspan><tspan x="0" y="50.88">each state are allocated to </tspan><tspan x="0" y="76.32">the parties. </tspan></text><text class="cls-7" transform="translate(415.45 18.61)">in Hamburg 2013 </text><text class="cls-5" transform="translate(285.86 18.15)">32% of votes</text><text class="cls-5" transform="translate(285.86 216.48)">...translates <tspan x="0" y="25.44">to 5 of 13 seats</tspan></text><text class="cls-7" transform="translate(771.38 44.65)">parties that got <tspan x="0" y="25.44">less than 5% of the </tspan><tspan x="0" y="50.88">Second votes on </tspan><tspan x="0" y="76.32">a national level get </tspan><tspan x="0" y="101.76">ignored. </tspan></text><rect class="cls-2" x="431.61" y="30.95" width="147.91" height="37.34"/><rect class="cls-3" x="579.52" y="30.95" width="40.17" height="37.34"/><rect class="cls-4" x="619.69" y="30.95" width="57.98" height="37.34"/><rect class="cls-8" x="686.24" y="30.95" width="63.91" height="37.34"/><rect class="cls-1" x="285.07" y="30.95" width="146.54" height="37.34"/><line class="cls-9" x1="355.64" y1="88.84" x2="355.64" y2="134.9"/><polygon class="cls-1" points="343.37 124.96 345.57 122.91 355.64 133.75 365.71 122.91 367.91 124.96 355.64 138.15 343.37 124.96"/><line class="cls-10" x1="504.34" y1="88.84" x2="504.34" y2="134.9"/><polygon class="cls-2" points="492.07 124.96 494.26 122.91 504.33 133.75 514.4 122.91 516.6 124.96 504.33 138.15 492.07 124.96"/><line class="cls-11" x1="599.31" y1="88.84" x2="599.31" y2="134.9"/><polygon class="cls-3" points="587.04 124.96 589.24 122.91 599.31 133.75 609.38 122.91 611.58 124.96 599.31 138.15 587.04 124.96"/><line class="cls-12" x1="649.7" y1="88.84" x2="649.7" y2="134.9"/><polygon class="cls-13" points="637.43 124.96 639.63 122.91 649.7 133.75 659.77 122.91 661.97 124.96 649.7 138.15 637.43 124.96"/><text class="cls-14" transform="translate(295.07 57.46)">CDU</text><text class="cls-14" transform="translate(440.66 57.46)">SPD</text></g></svg>